<?xml version="1.0" encoding="utf-8"?>
<!-- Generator: Adobe Illustrator 15.0.0, SVG Export Plug-In . SVG Version: 6.00 Build 0)  -->
<!DOCTYPE svg PUBLIC "-//W3C//DTD SVG 1.1//EN" "http://www.w3.org/Graphics/SVG/1.1/DTD/svg11.dtd">
<svg version="1.1" id="Слой_1" xmlns="http://www.w3.org/2000/svg" xmlns:xlink="http://www.w3.org/1999/xlink" x="0px" y="0px"
	 width="1002.167px" height="539.458px" viewBox="-1.167 51.375 1002.167 539.458"
	 enable-background="new -1.167 51.375 1002.167 539.458" xml:space="preserve">
<g id="Слой_3">
	<path fill="none" stroke="#CDCCCC" stroke-width="2" stroke-miterlimit="10" d="M300.552,375.711
		c0,0,32.703-318.406,195.222-323.167C659.516,47.746,699.477,374.53,699.477,374.53s-51.607,21.706-199.804,22.185
		C393.112,397.06,300.552,375.711,300.552,375.711z"/>
	<path fill="none" stroke="#CDCCCC" stroke-width="2" stroke-miterlimit="10" d="M252.677,370.196
		C89.103,329.981,40.284,258.207,40.284,258.207s115.07,14.855,234.757,27.489L252.677,370.196z"/>
	<path fill="none" stroke="#CDCCCC" stroke-width="2" stroke-miterlimit="10" d="M727.082,285.934
		c118.488-12.686,232.629-27.727,232.629-27.727s-47.027,73.708-216.754,113.587"/>
	<path fill="none" stroke="#CDCCCC" stroke-width="2" stroke-miterlimit="10" d="M498.697,266.601"/>
	<path fill="none" stroke="#CDCCCC" stroke-width="2" stroke-miterlimit="10" d="M498.697,271.398"/>
	<path fill="none" stroke="#CDCCCC" stroke-width="2" stroke-miterlimit="10" d="M0,271.398v86.343
		c0,0,40.286,222.755,498.697,231.748C959.654,598.532,1000,357.853,1000,357.853V271.4c0,0-103.57,159.169-501.303,159.169
		C103.96,430.568,0,271.398,0,271.398z"/>
	<polygon fill="none" stroke="#CDCCCC" stroke-width="2" stroke-miterlimit="10" points="17.215,327.461 40.286,345.748 
		18.434,384.084 	"/>
	<polygon fill="none" stroke="#CDCCCC" stroke-width="2" stroke-miterlimit="10" points="79.594,368.235 127.353,396.715 
		84.467,462.673 	"/>
	<polygon fill="none" stroke="#CDCCCC" stroke-width="2" stroke-miterlimit="10" points="157.567,401.51 221.893,421.298 
		176.087,512.141 	"/>
	<polygon fill="none" stroke="#CDCCCC" stroke-width="2" stroke-miterlimit="10" points="256.981,430.568 324.883,442.287 
		278.424,541.818 	"/>
	<polygon fill="none" stroke="#CDCCCC" stroke-width="2" stroke-miterlimit="10" points="356.397,448.283 429.983,452.779 
		389.047,559.36 	"/>
	<polygon fill="none" stroke="#CDCCCC" stroke-width="2" stroke-miterlimit="10" points="461.661,454.579 537.195,454.579 
		502.11,569.701 	"/>
	<polygon fill="none" stroke="#CDCCCC" stroke-width="2" stroke-miterlimit="10" points="569.849,454.579 642.297,450.08 
		614.357,564.604 	"/>
	<polygon fill="none" stroke="#CDCCCC" stroke-width="2" stroke-miterlimit="10" points="677.711,443.185 746.587,430.568 
		721.242,544.218 	"/>
	<polygon fill="none" stroke="#CDCCCC" stroke-width="2" stroke-miterlimit="10" points="777.449,424.297 838.852,403.311 
		828.133,512.141 	"/>
	<polygon fill="none" stroke="#CDCCCC" stroke-width="2" stroke-miterlimit="10" points="874.267,394.018 921.699,368.235 
		912.926,461.772 	"/>
	<polygon fill="none" stroke="#CDCCCC" stroke-width="2" stroke-miterlimit="10" points="954.35,349.348 984.078,327.461 
		980.18,386.672 	"/>
	<path fill="none" stroke="#CDCCCC" stroke-width="2" stroke-miterlimit="10" d="M256.981,371.238"/>
	<path fill="none" stroke="#CDCCCC" stroke-width="2" stroke-miterlimit="10" d="M272.528,285.431"/>
	<path fill="none" stroke="#CDCCCC" stroke-width="2" stroke-miterlimit="10" d="M742.849,371.238"/>
	<path fill="none" stroke="#CDCCCC" stroke-width="2" stroke-miterlimit="10" d="M727.082,285.934"/>
	<line display="none" fill="none" stroke="#000000" stroke-miterlimit="10" x1="423.882" y1="369.93" x2="433.018" y2="325.919"/>
	<line display="none" fill="none" stroke="#000000" stroke-miterlimit="10" x1="666.205" y1="324.963" x2="674.293" y2="370.218"/>
	
		<line fill="none" stroke="#CDCCCC" stroke-width="2" stroke-miterlimit="10" x1="727.082" y1="285.934" x2="742.849" y2="371.238"/>
</g>
</svg>
